<?xml version="1.0" standalone="no"?>
<!DOCTYPE svg PUBLIC "-//W3C//DTD SVG 20010904//EN"
 "http://www.w3.org/TR/2001/REC-SVG-20010904/DTD/svg10.dtd">
<svg version="1.0" xmlns="http://www.w3.org/2000/svg"
 width="700.000000pt" height="700.000000pt" viewBox="0 0 700.000000 700.000000"
 preserveAspectRatio="xMidYMid meet">
<metadata>
Created by potrace 1.14, written by Peter Selinger 2001-2017
</metadata>
<g transform="translate(0.000000,700.000000) scale(0.100000,-0.100000)"
fill="#000000" stroke="none">
<path d="M3397 6994 c-1 -1 -45 -4 -97 -7 -52 -3 -108 -8 -125 -11 -28 -5 -55
-10 -129 -21 -58 -9 -227 -56 -306 -85 -428 -158 -778 -481 -942 -870 -41 -95
-83 -226 -92 -282 -3 -21 -11 -59 -16 -84 -29 -130 -31 -423 -5 -594 3 -19 17
-80 30 -135 109 -443 408 -829 900 -1161 l114 -77 -82 -42 c-88 -45 -106 -55
-219 -124 -242 -146 -524 -386 -643 -546 -17 -22 -33 -42 -36 -45 -3 -3 -33
-45 -65 -95 -178 -268 -269 -578 -267 -915 0 -95 10 -246 18 -291 3 -13 7 -41
11 -64 3 -22 12 -69 21 -105 8 -36 17 -74 20 -85 5 -25 9 -36 15 -55 3 -8 16
-44 29 -80 131 -374 426 -716 806 -936 191 -110 472 -210 668 -238 22 -3 49
-7 60 -10 151 -31 620 -39 775 -11 14 2 45 6 70 9 38 5 122 20 216 40 52 11
177 50 264 83 314 119 596 321 806 578 50 62 144 201 144 214 0 5 4 11 8 13
13 5 98 189 130 283 129 374 141 817 31 1170 -154 494 -536 892 -1182 1228
l-47 25 92 62 c87 59 199 141 224 165 6 5 28 24 49 40 102 81 322 318 381 410
10 17 21 32 24 35 28 24 180 323 180 353 0 9 4 18 9 21 5 3 11 16 14 28 3 13
14 60 26 106 42 162 55 262 55 432 -1 475 -150 849 -464 1161 -303 302 -673
463 -1160 505 -68 6 -308 12 -313 8z m243 -688 c96 -8 213 -34 295 -65 40 -15
119 -54 125 -62 3 -3 10 -8 17 -10 29 -10 153 -118 199 -173 170 -203 245
-496 210 -820 -21 -197 -114 -420 -246 -590 -138 -180 -403 -387 -659 -516
l-82 -41 -116 61 c-398 210 -662 471 -790 780 -30 73 -57 163 -67 225 -2 17
-8 50 -12 75 -10 68 -7 266 6 353 31 207 105 367 233 503 139 149 309 236 525
269 143 22 209 24 362 11z m-12 -3080 c450 -225 800 -491 945 -719 118 -184
168 -365 168 -604 0 -62 -2 -127 -5 -145 -3 -18 -8 -53 -11 -78 -38 -319 -201
-597 -450 -770 -152 -104 -338 -177 -522 -205 -23 -3 -57 -8 -75 -11 -40 -6
-325 -6 -353 0 -11 2 -45 7 -75 11 -181 23 -405 113 -545 218 -297 222 -444
548 -446 987 -1 117 5 165 36 286 85 337 306 578 810 886 66 40 381 207 393
208 2 0 60 -29 130 -64z"/>
</g>
</svg>
